inDegrees=no
DataType=double
version=3
OpenSimVersion=4.4-2022-10-11-798caa840
endheader
time	elv_angle	shoulder_elv	shoulder_rot	elbow_flexion	pro_sup	deviation	flexion
2.4020851434	1.1721887589	1.2595825195	0.4363323152	0.8469218016	0.0000000000	0.0000000000	0.0000000000
2.4062554301	1.1721887589	1.2595825195	0.4363323152	0.8469218016	0.0000000000	0.0000000000	0.0000000000
2.4104257168	1.1721887589	1.2595825195	0.4363323152	0.8469218016	0.0000000000	0.0000000000	0.0000000000
2.4145960035	1.1721887589	1.2595825195	0.4363323152	0.8469218016	0.0000000000	0.0000000000	0.0000000000
2.4187662902	1.1721887589	1.2595825195	0.4363323152	0.8469218016	0.0000000000	0.0000000000	0.0000000000
2.4229365769	1.1721887589	1.2595825195	0.4363323152	0.8469218016	0.0000000000	0.0000000000	0.0000000000
2.4271068636	1.1721887589	1.2595825195	0.4363323152	0.8469218016	0.0000000000	0.0000000000	0.0000000000
2.4312771503	1.1721887589	1.2595825195	0.4363323152	0.8469218016	0.0000000000	0.0000000000	0.0000000000
2.4354474370	1.1721887589	1.2595825195	0.4363323152	0.8469218016	0.0000000000	0.0000000000	0.0000000000
2.4396177237	1.1721887589	1.2595825195	0.4363323152	0.8469218016	0.0000000000	0.0000000000	0.0000000000
2.4437880104	1.1721887589	1.2595825195	0.4363323152	0.8469218016	0.0000000000	0.0000000000	0.0000000000
2.4479582971	1.1721887589	1.2595825195	0.4363323152	0.8469218016	0.0000000000	0.0000000000	0.0000000000
2.4521285838	1.1721887589	1.2595825195	0.4363323152	0.8469218016	0.0000000000	0.0000000000	0.0000000000
2.4562988705	1.1721887589	1.2595825195	0.4363323152	0.8469218016	0.0000000000	0.0000000000	0.0000000000
2.4604691573	1.1721887589	1.2595825195	0.4363323152	0.8469218016	0.0000000000	0.0000000000	0.0000000000
2.4646394440	1.1721887589	1.2595825195	0.4363323152	0.8469218016	0.0000000000	0.0000000000	0.0000000000
2.4688097307	1.1721887589	1.2595825195	0.4363323152	0.8469218016	0.0000000000	0.0000000000	0.0000000000
2.4729800174	1.1721887589	1.2595825195	0.4363323152	0.8469218016	0.0000000000	0.0000000000	0.0000000000
2.4771503041	1.1721887589	1.2595825195	0.4363323152	0.8469218016	0.0000000000	0.0000000000	0.0000000000
2.4813205908	1.1721887589	1.2595825195	0.4363323152	0.8469218016	0.0000000000	0.0000000000	0.0000000000
2.4854908775	1.1721887589	1.2595825195	0.4363323152	0.8469218016	0.0000000000	0.0000000000	0.0000000000
2.4896611642	1.1721887589	1.2595825195	0.4363323152	0.8469218016	0.0000000000	0.0000000000	0.0000000000
2.4938314509	1.1721887589	1.2595825195	0.4363323152	0.8469218016	0.0000000000	0.0000000000	0.0000000000
2.4980017376	1.1721887589	1.2595825195	0.4363323152	0.8469218016	0.0000000000	0.0000000000	0.0000000000
2.5021720243	1.1721887589	1.2595825195	0.4363323152	0.8469218016	0.0000000000	0.0000000000	0.0000000000
2.5063423110	1.1721887589	1.2595825195	0.4363323152	0.8469218016	0.0000000000	0.0000000000	0.0000000000
2.5105125977	1.1721887589	1.2595825195	0.4363323152	0.8469218016	0.0000000000	0.0000000000	0.0000000000
2.5146828844	1.1721887589	1.2595825195	0.4363323152	0.8469218016	0.0000000000	0.0000000000	0.0000000000
2.5188531712	1.1721887589	1.2595825195	0.4363323152	0.8469218016	0.0000000000	0.0000000000	0.0000000000
2.5230234579	1.1721887589	1.2595825195	0.4363323152	0.8469218016	0.0000000000	0.0000000000	0.0000000000
2.5271937446	1.1721887589	1.2595825195	0.4363323152	0.8469218016	0.0000000000	0.0000000000	0.0000000000
2.5313640313	1.1721887589	1.2595825195	0.4363323152	0.8469218016	0.0000000000	0.0000000000	0.0000000000
2.5355343180	1.1721887589	1.2595825195	0.4363323152	0.8469218016	0.0000000000	0.0000000000	0.0000000000
2.5397046047	1.1721887589	1.2595825195	0.4363323152	0.8469218016	0.0000000000	0.0000000000	0.0000000000
2.5438748914	1.1721887589	1.2595825195	0.4363323152	0.8469218016	0.0000000000	0.0000000000	0.0000000000
2.5480451781	1.1721887589	1.2595825195	0.4363323152	0.8469218016	0.0000000000	0.0000000000	0.0000000000
2.5522154648	1.1721887589	1.2595825195	0.4363323152	0.8469218016	0.0000000000	0.0000000000	0.0000000000
2.5563857515	1.1721887589	1.2595825195	0.4363323152	0.8469218016	0.0000000000	0.0000000000	0.0000000000
2.5605560382	1.1721887589	1.2595825195	0.4363323152	0.8469218016	0.0000000000	0.0000000000	0.0000000000
2.5647263249	1.1721887589	1.2595825195	0.4363323152	0.8469218016	0.0000000000	0.0000000000	0.0000000000
2.5688966116	1.1721887589	1.2595825195	0.4363323152	0.8469218016	0.0000000000	0.0000000000	0.0000000000
2.5730668983	1.1721887589	1.2595825195	0.4363323152	0.8469218016	0.0000000000	0.0000000000	0.0000000000
2.5772371851	1.1721887589	1.2595825195	0.4363323152	0.8469218016	0.0000000000	0.0000000000	0.0000000000
2.5814074718	1.1721887589	1.2595825195	0.4363323152	0.8469218016	0.0000000000	0.0000000000	0.0000000000
2.5855777585	1.1721887589	1.2595825195	0.4363323152	0.8469218016	0.0000000000	0.0000000000	0.0000000000
2.5897480452	1.1721887589	1.2595825195	0.4363323152	0.8469218016	0.0000000000	0.0000000000	0.0000000000
2.5939183319	1.1721887589	1.2595825195	0.4363323152	0.8469218016	0.0000000000	0.0000000000	0.0000000000
2.5980886186	1.1721887589	1.2595825195	0.4363323152	0.8469218016	0.0000000000	0.0000000000	0.0000000000
2.6022589053	1.1721887589	1.2595825195	0.4363323152	0.8469218016	0.0000000000	0.0000000000	0.0000000000
2.6064291920	1.1721887589	1.2595825195	0.4363323152	0.8469218016	0.0000000000	0.0000000000	0.0000000000
2.6105994787	1.1721887589	1.2595825195	0.4363323152	0.8469218016	0.0000000000	0.0000000000	0.0000000000
2.6147697654	1.1721887589	1.2595825195	0.4363323152	0.8469218016	0.0000000000	0.0000000000	0.0000000000
2.6189400521	1.1721887589	1.2595825195	0.4363323152	0.8469218016	0.0000000000	0.0000000000	0.0000000000
2.6231103388	1.1721887589	1.2595825195	0.4363323152	0.8469218016	0.0000000000	0.0000000000	0.0000000000
2.6272806255	1.1721887589	1.2595825195	0.4363323152	0.8469218016	0.0000000000	0.0000000000	0.0000000000
2.6314509123	1.1721887589	1.2595825195	0.4363323152	0.8469218016	0.0000000000	0.0000000000	0.0000000000
2.6356211990	1.1721887589	1.2595825195	0.4363323152	0.8469218016	0.0000000000	0.0000000000	0.0000000000
2.6397914857	1.1721887589	1.2595825195	0.4363323152	0.8469218016	0.0000000000	0.0000000000	0.0000000000
2.6439617724	1.1721887589	1.2595825195	0.4363323152	0.8469218016	0.0000000000	0.0000000000	0.0000000000
2.6481320591	1.1721887589	1.2595825195	0.4363323152	0.8469218016	0.0000000000	0.0000000000	0.0000000000
2.6523023458	1.1721887589	1.2595825195	0.4363323152	0.8469218016	0.0000000000	0.0000000000	0.0000000000
2.6564726325	1.1721862555	1.2595813274	0.4363323152	0.8469274044	0.0000000000	0.0000000000	0.0000000000
2.6606429192	1.1721681356	1.2595728636	0.4363323152	0.8469676375	0.0000000000	0.0000000000	0.0000000000
2.6648132059	1.1721196175	1.2595505714	0.4363323152	0.8470752835	0.0000000000	0.0000000000	0.0000000000
2.6689834926	1.1720269918	1.2595077753	0.4363323152	0.8472810388	0.0000000000	0.0000000000	0.0000000000
2.6731537793	1.1718767881	1.2594383955	0.4363323152	0.8476145267	0.0000000000	0.0000000000	0.0000000000
2.6773240660	1.1716567278	1.2593369484	0.4363323152	0.8481028676	0.0000000000	0.0000000000	0.0000000000
2.6814943527	1.1713550091	1.2591980696	0.4363323152	0.8487722874	0.0000000000	0.0000000000	0.0000000000
2.6856646394	1.1709609032	1.2590168715	0.4363323152	0.8496464491	0.0000000000	0.0000000000	0.0000000000
2.6898349262	1.1704638004	1.2587889433	0.4363323152	0.8507480025	0.0000000000	0.0000000000	0.0000000000
2.6940052129	1.1698547602	1.2585103512	0.4363323152	0.8520969748	0.0000000000	0.0000000000	0.0000000000
2.6981754996	1.1691247225	1.2581775188	0.4363323152	0.8537120223	0.0000000000	0.0000000000	0.0000000000
2.7023457863	1.1682660580	1.2577877045	0.4363323152	0.8556099534	0.0000000000	0.0000000000	0.0000000000
2.7065160730	1.1672711372	1.2573381662	0.4363323152	0.8578057885	0.0000000000	0.0000000000	0.0000000000
2.7106863597	1.1661337614	1.2568268776	0.4363323152	0.8603124619	0.0000000000	0.0000000000	0.0000000000
2.7148566464	1.1648479700	1.2562526464	0.4363323152	0.8631411791	0.0000000000	0.0000000000	0.0000000000
2.7190269331	1.1634089947	1.2556142807	0.4363323152	0.8663015962	0.0000000000	0.0000000000	0.0000000000
2.7231972198	1.1618118286	1.2549113035	0.4363323152	0.8698014617	0.0000000000	0.0000000000	0.0000000000
2.7273675065	1.1600531340	1.2541438341	0.4363323152	0.8736467957	0.0000000000	0.0000000000	0.0000000000
2.7315377932	1.1581298113	1.2533124685	0.4363323152	0.8778413534	0.0000000000	0.0000000000	0.0000000000
2.7357080799	1.1560393572	1.2524181604	0.4363323152	0.8823879957	0.0000000000	0.0000000000	0.0000000000
2.7398783666	1.1537797451	1.2514626980	0.4363323152	0.8872883320	0.0000000000	0.0000000000	0.0000000000
2.7440486533	1.1513500214	1.2504477501	0.4363323152	0.8925408721	0.0000000000	0.0000000000	0.0000000000
2.7482189401	1.1487494707	1.2493758202	0.4363323152	0.8981441259	0.0000000000	0.0000000000	0.0000000000
2.7523892268	1.1459782124	1.2482496500	0.4363323152	0.9040945768	0.0000000000	0.0000000000	0.0000000000
2.7565595135	1.1430360079	1.2470725775	0.4363323152	0.9103878140	0.0000000000	0.0000000000	0.0000000000
2.7607298002	1.1399247646	1.2458479404	0.4363323152	0.9170175195	0.0000000000	0.0000000000	0.0000000000
2.7649000869	1.1366453171	1.2445796728	0.4363323152	0.9239771366	0.0000000000	0.0000000000	0.0000000000
2.7690703736	1.1331995726	1.2432717085	0.4363323152	0.9312585592	0.0000000000	0.0000000000	0.0000000000
2.7732406603	1.1295900345	1.2419286966	0.4363323152	0.9388525486	0.0000000000	0.0000000000	0.0000000000
2.7774109470	1.1258196831	1.2405548096	0.4363323152	0.9467494488	0.0000000000	0.0000000000	0.0000000000
2.7815812337	1.1218914986	1.2391548157	0.4363323152	0.9549384117	0.0000000000	0.0000000000	0.0000000000
2.7857515204	1.1178086996	1.2377338409	0.4363323152	0.9634087086	0.0000000000	0.0000000000	0.0000000000
2.7899218071	1.1135758162	1.2362964153	0.4363323152	0.9721478820	0.0000000000	0.0000000000	0.0000000000
2.7940920938	1.1091966629	1.2348474264	0.4363323152	0.9811440110	0.0000000000	0.0000000000	0.0000000000
2.7982623805	1.1046757698	1.2333923578	0.4363323152	0.9903839231	0.0000000000	0.0000000000	0.0000000000
